<svg width="150" height="150" viewBox="0 0 436 436" fill="none" xmlns="http://www.w3.org/2000/svg">
<path d="M194.469 402.923C196.163 403.124 197.709 403.587 199.105 404.311C200.478 405.055 201.644 405.999 202.603 407.144C203.539 408.308 204.221 409.624 204.648 411.093C205.075 412.561 205.191 414.122 204.994 415.774C204.798 417.426 204.32 418.917 203.561 420.244C202.802 421.572 201.822 422.68 200.62 423.569C199.417 424.478 198.062 425.123 196.556 425.503C195.048 425.904 193.435 426.002 191.719 425.798C189.898 425.582 188.272 425.067 186.844 424.253C185.413 423.46 184.251 422.387 183.359 421.035L186.326 418.842C187.028 419.806 187.852 420.559 188.797 421.101C189.74 421.664 190.794 422.015 191.959 422.153C193.124 422.292 194.217 422.228 195.236 421.962C196.235 421.694 197.136 421.253 197.939 420.64C198.721 420.024 199.37 419.263 199.886 418.358C200.38 417.45 200.696 416.424 200.832 415.28C200.967 414.136 200.901 413.064 200.633 412.066C200.344 411.065 199.891 410.173 199.275 409.391C198.638 408.606 197.865 407.967 196.957 407.472C196.028 406.975 194.981 406.657 193.816 406.519C192.651 406.381 191.545 406.464 190.499 406.77C189.451 407.096 188.471 407.657 187.56 408.451L185.193 405.592C186.374 404.507 187.755 403.737 189.335 403.28C190.914 402.823 192.625 402.704 194.469 402.923Z" fill="white"/>
<path d="M176.588 400.319L170.604 421.905L161.722 419.443C159.811 418.913 158.262 418.152 157.076 417.159C155.869 416.16 155.056 414.983 154.635 413.626C154.214 412.27 154.223 410.8 154.662 409.217C155.101 407.634 155.85 406.37 156.909 405.424C157.962 404.498 159.263 403.918 160.812 403.683C162.334 403.463 164.051 403.618 165.963 404.148L172.623 405.994L170.331 407.318L172.579 399.208L176.588 400.319ZM162.464 396.404L165.751 405.75L161.465 404.561L158.147 395.207L162.464 396.404ZM170.45 406.886L171.709 409.294L165.233 407.499C163.465 407.009 162.034 407.021 160.939 407.537C159.823 408.047 159.078 408.98 158.701 410.337C158.32 411.714 158.478 412.898 159.178 413.889C159.856 414.874 161.08 415.612 162.848 416.102L169.324 417.897L166.988 419.375L170.45 406.886Z" fill="white"/>
<path d="M140.587 402.315L130.407 397.801L131.795 394.671L141.975 399.185L140.587 402.315ZM144.186 393.41L132.632 388.286L134.046 385.097L149.403 391.908L140.323 412.384L125.374 405.755L126.788 402.567L137.934 407.509L144.186 393.41ZM134.522 411.808L128.796 414.064L124.496 412.157L131.363 410.407L134.522 411.808Z" fill="white"/>
<path d="M115.312 389.556L105.872 383.649L107.688 380.746L117.129 386.653L115.312 389.556ZM120.133 381.248L109.418 374.543L111.268 371.586L125.51 380.498L113.628 399.487L99.7662 390.813L101.616 387.856L111.952 394.323L120.133 381.248Z" fill="white"/>
<path d="M92.8978 357.077L77.1511 373.009L70.5966 366.53C69.1855 365.135 68.2043 363.715 67.6528 362.27C67.0861 360.81 66.9496 359.386 67.2432 357.996C67.5369 356.607 68.2611 355.328 69.4158 354.159C70.5706 352.991 71.841 352.252 73.227 351.942C74.6131 351.632 76.0393 351.752 77.5058 352.302C78.9571 352.837 80.3882 353.801 81.7993 355.196L86.7151 360.055L84.0229 360.139L89.9392 354.153L92.8978 357.077ZM84.3379 359.82L84.2406 362.558L79.4613 357.834C78.1565 356.545 76.9079 355.851 75.7156 355.752C74.4931 355.653 73.387 356.105 72.3972 357.106C71.3924 358.123 70.9539 359.234 71.0816 360.44C71.1941 361.631 71.9028 362.872 73.2076 364.161L77.9869 368.885L75.2272 369.037L84.3379 359.82Z" fill="white"/>
<path d="M75.1269 339.067L51.1349 344.335L48.6921 341.047L60.6417 319.571L63.2372 323.065L52.2011 342.068L51.2087 340.732L72.5696 335.625L75.1269 339.067ZM68.1985 338.434L64.9105 339.482L57.6966 329.773L59.6486 326.927L68.1985 338.434Z" fill="white"/>
<path d="M56.9209 313.228L37.1228 323.706L32.8117 315.561C31.8836 313.807 31.3731 312.158 31.2801 310.614C31.1772 309.052 31.474 307.652 32.1707 306.414C32.8673 305.176 33.9416 304.173 35.3934 303.405C36.8453 302.637 38.2788 302.312 39.694 302.432C41.0903 302.562 42.4055 303.109 43.6398 304.073C44.8453 305.028 45.912 306.382 46.8401 308.136L50.0734 314.245L47.5365 313.488L54.9749 309.551L56.9209 313.228ZM50.0651 300.274L45.5307 309.082L43.45 305.151L47.9694 296.314L50.0651 300.274ZM47.9325 313.278L47.0471 315.847L43.9036 309.907C43.0454 308.286 42.0529 307.254 40.9262 306.813C39.7894 306.352 38.5988 306.451 37.3544 307.11C36.0911 307.779 35.3396 308.707 35.0999 309.896C34.8502 311.066 35.1544 312.462 36.0127 314.084L39.1562 320.023L36.4778 319.341L47.9325 313.278Z" fill="white"/>
<path d="M38.1849 267.975C38.6497 269.662 38.8582 271.341 38.8103 273.014C38.7419 274.693 38.4519 276.089 37.9403 277.204L34.4419 276.674C34.8825 275.624 35.1533 274.398 35.2543 272.998C35.3553 271.599 35.2216 270.23 34.8531 268.893C34.5414 267.762 34.1657 266.881 33.7262 266.25C33.2866 265.619 32.8159 265.195 32.3138 264.979C31.7912 264.769 31.2626 264.738 30.7278 264.885C30.0697 265.067 29.6105 265.448 29.3501 266.029C29.0691 266.615 28.9204 267.32 28.9039 268.143C28.8612 268.952 28.8646 269.847 28.914 270.829C28.9577 271.791 28.9735 272.771 28.9612 273.77C28.9227 274.755 28.7924 275.687 28.5702 276.567C28.3218 277.432 27.8926 278.203 27.2826 278.88C26.6726 279.557 25.7917 280.054 24.64 280.372C23.4677 280.695 22.3132 280.681 21.1766 280.331C20.0136 279.965 18.9685 279.224 18.0412 278.108C17.0877 276.977 16.3388 275.424 15.7946 273.449C15.4375 272.154 15.2477 270.823 15.2253 269.457C15.2029 268.091 15.3698 266.85 15.7261 265.734L19.1905 266.14C18.8811 267.266 18.7344 268.379 18.7505 269.481C18.746 270.589 18.8741 271.616 19.1349 272.562C19.441 273.672 19.8241 274.541 20.2842 275.166C20.7386 275.771 21.2271 276.179 21.7497 276.389C22.2666 276.578 22.8027 276.596 23.358 276.443C24.0162 276.262 24.4885 275.888 24.7751 275.322C25.0355 274.742 25.1768 274.05 25.199 273.247C25.2154 272.424 25.2093 271.518 25.1804 270.53C25.131 269.548 25.1152 268.568 25.1332 267.589C25.1454 266.59 25.2655 265.661 25.4933 264.801C25.7155 263.921 26.1344 263.153 26.7501 262.497C27.3601 261.819 28.2307 261.325 29.3618 261.013C30.5135 260.696 31.6709 260.72 32.8338 261.085C33.9705 261.436 35.0156 262.177 35.9691 263.308C36.9021 264.445 37.6407 266.001 38.1849 267.975Z" fill="white"/>
<path d="M33.0469 245.48L14.3389 248.022L15.3389 255.379L11.8509 255.853L9.29074 237.018L12.7787 236.544L13.7786 243.9L32.4866 241.357L33.0469 245.48Z" fill="white"/>
<path d="M17.9214 221.77L17.9366 210.634L21.3606 210.638L21.3454 221.774L17.9214 221.77ZM27.5218 221.463L27.5391 208.823L31.0271 208.828L31.0041 225.627L8.60411 225.597L8.62651 209.245L12.1145 209.25L12.0978 221.442L27.5218 221.463Z" fill="white"/>
<path d="M32.7165 192.623L9.11533 198.997L9.78218 194.534L31.1069 188.888L30.7238 191.451L11.9956 179.723L12.6104 175.608L33.3219 188.572L32.7165 192.623Z" fill="white"/>
<path d="M25.3718 163.685L28.6128 153.031L31.8886 154.027L28.6476 164.681L25.3718 163.685ZM34.6494 166.172L38.3281 154.08L41.6651 155.095L36.7757 171.167L15.3453 164.648L20.1044 149.004L23.4414 150.019L19.8931 161.683L34.6494 166.172Z" fill="white"/>
<path d="M45.0886 146.057L24.8946 136.364L26.3763 133.277L48.0048 128.076L47.2709 129.605L31.7215 122.141L33.5078 118.42L53.7019 128.113L52.2202 131.2L30.5916 136.401L31.3256 134.872L46.875 142.336L45.0886 146.057Z" fill="white"/>
<path d="M69.6502 104.099L54.8281 92.4048L50.2296 98.2332L47.4662 96.0529L59.2398 81.1302L62.0032 83.3105L57.4048 89.1389L72.227 100.833L69.6502 104.099Z" fill="white"/>
<path d="M76.2051 76.7499L84.228 69.027L86.6026 71.4938L78.5796 79.2167L76.2051 76.7499ZM83.0933 83.4443L92.1998 74.6784L94.6187 77.1913L82.5151 88.8422L66.9806 72.7041L78.7615 61.3639L81.1804 63.8768L72.3966 72.332L83.0933 83.4443Z" fill="white"/>
<path d="M102.058 70.9982L89.0541 52.7592L96.5581 47.4091C98.1736 46.2573 99.7403 45.5333 101.258 45.2371C102.794 44.9284 104.221 45.0375 105.54 45.5644C106.859 46.0914 107.995 47.0236 108.948 48.3611C109.902 49.6986 110.413 51.0767 110.481 52.4953C110.537 53.8965 110.169 55.2726 109.376 56.6234C108.589 57.9446 107.388 59.181 105.772 60.3328L100.144 64.3453L100.559 61.7306L105.445 68.5833L102.058 70.9982ZM113.991 62.4901L104.661 59.16L108.283 56.5778L117.639 59.8893L113.991 62.4901ZM100.819 62.0954L98.1564 61.5574L103.628 57.6562C105.122 56.5912 106.013 55.471 106.302 54.2958C106.608 53.1082 106.352 51.9411 105.535 50.7947C104.705 49.6308 103.685 49.0087 102.475 48.9283C101.282 48.8355 99.9391 49.3216 98.4452 50.3867L92.9735 54.2878L93.2958 51.5428L100.819 62.0954Z" fill="white"/>
<path d="M125.63 55.1061L115.648 35.0535L118.713 33.5276L138.975 42.7076L137.457 43.4634L129.77 28.0229L133.466 26.1833L143.449 46.2358L140.383 47.7618L120.121 38.5818L121.639 37.826L129.326 53.2665L125.63 55.1061Z" fill="white"/>
<path d="M152.953 28.7628L163.56 25.369L164.603 28.6301L153.997 32.024L152.953 28.7628ZM156.184 37.8086L168.222 33.9565L169.285 37.2785L153.285 42.3985L146.458 21.0641L162.032 16.0807L163.095 19.4027L151.483 23.1184L156.184 37.8086Z" fill="white"/>
<path d="M188.229 33.7598C185.195 34.2415 182.679 33.7662 180.68 32.3339C178.702 30.8983 177.458 28.5687 176.946 25.3451L174.964 12.8614L179.072 12.2091L181.029 24.5347C181.391 26.8102 182.138 28.3872 183.271 29.2657C184.425 30.1408 185.898 30.4362 187.689 30.1519C189.479 29.8675 190.778 29.1322 191.583 27.9459C192.388 26.7596 192.61 25.0287 192.249 22.7532L190.292 10.4276L194.337 9.78531L196.319 22.2689C196.831 25.4925 196.359 28.0948 194.902 30.0758C193.466 32.0534 191.242 33.2814 188.229 33.7598Z" fill="white"/>
<path d="M215.814 31.406C214.065 31.4198 212.388 31.1877 210.784 30.7096C209.18 30.2102 207.906 29.5696 206.961 28.7876L208.376 25.5444C209.277 26.2413 210.391 26.8192 211.717 27.2781C213.044 27.737 214.4 27.961 215.787 27.9501C216.96 27.9409 217.908 27.8054 218.632 27.5437C219.355 27.282 219.886 26.9365 220.224 26.5071C220.561 26.0565 220.728 25.5538 220.724 24.9992C220.718 24.3165 220.469 23.7745 219.975 23.373C219.481 22.9502 218.838 22.6246 218.047 22.3962C217.277 22.1462 216.411 21.9184 215.45 21.7126C214.509 21.5066 213.558 21.2688 212.596 20.999C211.655 20.7078 210.788 20.3412 209.995 19.8995C209.224 19.4362 208.589 18.8225 208.093 18.0584C207.596 17.2943 207.343 16.3149 207.334 15.1203C207.324 13.9043 207.635 12.7925 208.267 11.7848C208.921 10.7557 209.906 9.9372 211.224 9.32947C212.563 8.70024 214.257 8.37757 216.305 8.36144C217.649 8.35086 218.983 8.51102 220.308 8.84193C221.634 9.17284 222.79 9.65442 223.776 10.2867L222.489 13.5289C221.482 12.9395 220.444 12.5103 219.375 12.2414C218.306 11.9511 217.281 11.8099 216.3 11.8176C215.148 11.8267 214.21 11.9727 213.487 12.2557C212.785 12.5386 212.266 12.9054 211.928 13.3561C211.611 13.8066 211.455 14.3198 211.46 14.8958C211.465 15.5784 211.704 16.1312 212.177 16.5542C212.671 16.9557 213.303 17.2707 214.072 17.4993C214.864 17.7277 215.74 17.9555 216.702 18.1826C217.664 18.3884 218.615 18.6262 219.556 18.8962C220.518 19.1659 221.385 19.5218 222.156 19.9637C222.949 20.4055 223.583 21.0085 224.058 21.7728C224.555 22.5369 224.808 23.5056 224.817 24.6789C224.827 25.8736 224.505 26.9855 223.852 28.0146C223.219 29.0223 222.234 29.8408 220.895 30.47C219.556 31.0779 217.862 31.3899 215.814 31.406Z" fill="white"/>
<path d="M254.402 21.3178L265.305 23.5815L264.609 26.934L253.706 24.6703L254.402 21.3178ZM252.763 30.7824L265.14 33.3518L264.43 36.767L247.981 33.3519L252.535 11.4196L268.545 14.7437L267.836 18.1588L255.899 15.6804L252.763 30.7824ZM258.326 10.759L263.447 7.34476L268.053 8.30099L261.71 11.4616L258.326 10.759Z" fill="white"/>
<path d="M278.032 41.0247L284.349 23.233L277.353 20.7489L278.531 17.4318L296.443 23.7919L295.265 27.109L288.269 24.6249L281.952 42.4167L278.032 41.0247Z" fill="white"/>
<path d="M304.977 53.0093C302.264 51.5686 300.54 49.6749 299.806 47.3283C299.09 44.9917 299.497 42.382 301.028 39.4993L306.956 28.3356L310.63 30.2866L304.777 41.309C303.697 43.3439 303.345 45.0531 303.721 46.4365C304.116 47.83 305.115 48.952 306.716 49.8024C308.318 50.6529 309.797 50.8466 311.154 50.3836C312.511 49.9206 313.73 48.6716 314.81 46.6367L320.664 35.6144L324.281 37.5353L318.353 48.699C316.822 51.5818 314.879 53.3761 312.524 54.0818C310.187 54.7976 307.672 54.4401 304.977 53.0093Z" fill="white"/>
<path d="M323.077 63.1874L336.695 45.4025L344.469 51.3557C346.4 52.8342 347.809 54.5039 348.695 56.3645C349.581 58.2252 349.925 60.1274 349.726 62.0711C349.527 64.0148 348.741 65.8844 347.366 67.6798C346.004 69.4583 344.404 70.7053 342.567 71.4209C340.742 72.1195 338.816 72.2837 336.789 71.9136C334.761 71.5434 332.782 70.6191 330.851 69.1405L323.077 63.1874ZM328.52 62.9217L332.839 66.229C334.177 67.2537 335.523 67.8815 336.878 68.1127C338.249 68.3568 339.548 68.2226 340.773 67.71C342.016 67.2104 343.104 66.3508 344.037 65.1313C344.984 63.8948 345.53 62.6202 345.676 61.3074C345.851 59.9907 345.642 58.7022 345.049 57.4418C344.472 56.1944 343.515 55.0583 342.177 54.0337L337.858 50.7264L328.52 62.9217Z" fill="white"/>
<path d="M347.37 83.2598L363.115 67.3269L366.074 70.2509L350.329 86.1838L347.37 83.2598Z" fill="white"/>
<path d="M356.303 91.9022L380.1 85.8161L382.654 89.0184L371.447 110.891L368.733 107.488L379.112 88.1185L380.15 89.4194L358.976 95.2546L356.303 91.9022ZM363.249 92.2975L366.499 91.138L374.041 100.595L372.188 103.506L363.249 92.2975Z" fill="white"/>
<path d="M375.416 117.062L394.902 106.014L396.591 108.993L388.515 129.72L387.679 128.245L402.683 119.738L404.719 123.329L385.233 134.377L383.544 131.398L391.62 110.671L392.456 112.146L377.452 120.653L375.416 117.062Z" fill="white"/>
<path d="M391.202 148.263L408.813 141.457L406.137 134.532L409.42 133.263L416.272 150.993L412.989 152.262L410.312 145.337L392.702 152.143L391.202 148.263Z" fill="white"/>
<path d="M414.561 182.173L416.322 193.169L412.941 193.71L411.18 182.714L414.561 182.173ZM405.132 184.007L407.131 196.488L403.687 197.04L401.03 180.451L423.148 176.908L425.735 193.054L422.29 193.606L420.362 181.568L405.132 184.007Z" fill="white"/>
<path d="M404.576 206.663L426.975 206.515L426.998 209.939L409.843 224.101L409.832 222.405L427.079 222.291L427.107 226.418L404.707 226.567L404.685 223.143L421.839 208.981L421.85 210.677L404.603 210.791L404.576 206.663Z" fill="white"/>
<path d="M400.091 257.411C400.467 255.702 401.066 254.119 401.889 252.662C402.733 251.209 403.641 250.109 404.613 249.362L407.461 251.462C406.581 252.186 405.77 253.144 405.027 254.335C404.285 255.526 403.764 256.798 403.467 258.153C403.215 259.299 403.136 260.253 403.23 261.017C403.324 261.78 403.543 262.374 403.887 262.799C404.251 263.229 404.704 263.503 405.245 263.622C405.912 263.769 406.496 263.646 406.997 263.254C407.52 262.867 407.98 262.313 408.379 261.592C408.794 260.897 409.208 260.103 409.623 259.212C410.033 258.341 410.476 257.466 410.953 256.588C411.447 255.736 411.997 254.972 412.604 254.297C413.227 253.648 413.967 253.166 414.822 252.852C415.678 252.538 416.689 252.509 417.856 252.765C419.043 253.027 420.058 253.577 420.9 254.418C421.758 255.284 422.336 256.427 422.636 257.847C422.951 259.292 422.889 261.015 422.449 263.015C422.161 264.328 421.708 265.593 421.09 266.812C420.473 268.03 419.746 269.05 418.91 269.871L416.035 267.896C416.834 267.045 417.484 266.128 417.984 265.146C418.504 264.168 418.87 263.2 419.081 262.242C419.328 261.117 419.394 260.17 419.279 259.402C419.16 258.655 418.918 258.067 418.554 257.637C418.185 257.228 417.719 256.962 417.156 256.838C416.49 256.692 415.898 256.802 415.38 257.169C414.879 257.561 414.431 258.107 414.037 258.806C413.638 259.527 413.221 260.331 412.786 261.218C412.371 262.11 411.928 262.984 411.455 263.841C410.978 264.719 410.439 265.485 409.836 266.139C409.229 266.814 408.5 267.298 407.649 267.591C406.794 267.906 405.793 267.937 404.647 267.685C403.48 267.428 402.468 266.867 401.61 266.001C400.768 265.161 400.189 264.018 399.874 262.572C399.579 261.131 399.651 259.411 400.091 257.411Z" fill="white"/>
<path d="M406.676 283.588L402.799 294.027L399.589 292.835L403.466 282.396L406.676 283.588ZM397.565 280.546L393.165 292.395L389.895 291.181L395.743 275.432L416.742 283.23L411.05 298.559L407.78 297.345L412.024 285.915L397.565 280.546Z" fill="white"/>
<path d="M386.086 300.026L405.515 311.174L403.811 314.144L384.754 314.5L385.646 312.945L395.036 329.437L393.332 332.407L373.887 321.288L375.846 317.874L389.934 325.92L389.52 326.641L381.745 312.736L382.669 311.126L398.661 310.71L398.183 311.542L384.111 303.468L386.086 300.026Z" fill="white"/>
<path d="M375.113 341.344L368.057 349.96L365.408 347.79L372.465 339.175L375.113 341.344ZM367.484 335.509L359.475 345.288L356.776 343.078L367.421 330.081L384.751 344.274L374.39 356.924L371.691 354.714L379.416 345.282L367.484 335.509Z" fill="white"/>
<path d="M344.735 354.552C346.02 353.365 347.417 352.41 348.926 351.685C350.449 350.976 351.823 350.593 353.048 350.536L354.182 353.888C353.046 353.978 351.833 354.3 350.543 354.852C349.253 355.404 348.098 356.151 347.079 357.091C346.217 357.887 345.606 358.625 345.247 359.305C344.888 359.985 344.727 360.598 344.766 361.143C344.819 361.704 345.034 362.188 345.41 362.595C345.873 363.097 346.422 363.33 347.058 363.295C347.708 363.276 348.402 363.085 349.141 362.722C349.879 362.389 350.673 361.975 351.523 361.481C352.358 361.001 353.222 360.537 354.115 360.09C355.008 359.673 355.896 359.361 356.78 359.155C357.662 358.979 358.544 359.006 359.426 359.238C360.307 359.469 361.153 360.024 361.964 360.902C362.788 361.795 363.306 362.827 363.516 363.998C363.724 365.199 363.545 366.468 362.979 367.804C362.411 369.17 361.374 370.548 359.869 371.937C358.882 372.849 357.786 373.628 356.583 374.274C355.38 374.92 354.2 375.341 353.045 375.537L351.817 372.272C352.959 372.031 354.016 371.65 354.988 371.13C355.974 370.626 356.828 370.041 357.549 369.376C358.395 368.594 358.991 367.856 359.336 367.16C359.665 366.479 359.803 365.858 359.75 365.297C359.681 364.751 359.451 364.266 359.061 363.843C358.598 363.341 358.049 363.093 357.415 363.098C356.779 363.133 356.1 363.324 355.376 363.673C354.637 364.036 353.835 364.457 352.971 364.936C352.121 365.43 351.257 365.894 350.379 366.327C349.485 366.774 348.604 367.094 347.736 367.285C346.852 367.492 345.977 367.472 345.112 367.226C344.23 366.994 343.392 366.447 342.596 365.585C341.785 364.707 341.276 363.668 341.067 362.467C340.857 361.296 341.036 360.028 341.604 358.661C342.187 357.311 343.23 355.941 344.735 354.552Z" fill="white"/>
<path d="M327.102 369.436L337.943 384.893L344.021 380.63L346.042 383.512L330.48 394.427L328.459 391.545L334.537 387.282L323.696 371.824L327.102 369.436Z" fill="white"/>
<path d="M310.436 380.388L320.579 400.36L312.362 404.533C310.593 405.431 308.935 405.914 307.39 405.981C305.826 406.057 304.431 405.737 303.205 405.019C301.98 404.302 300.995 403.211 300.251 401.746C299.507 400.282 299.207 398.843 299.351 397.43C299.505 396.036 300.074 394.73 301.058 393.512C302.034 392.323 303.406 391.279 305.175 390.381L311.338 387.251L310.538 389.775L306.727 382.271L310.436 380.388ZM297.369 387.024L306.099 391.706L302.133 393.72L293.374 389.052L297.369 387.024ZM310.335 389.376L312.888 390.304L306.896 393.347C305.261 394.178 304.212 395.153 303.752 396.272C303.272 397.401 303.351 398.593 303.989 399.848C304.636 401.123 305.552 401.89 306.737 402.149C307.902 402.419 309.303 402.138 310.939 401.307L316.931 398.265L316.203 400.931L310.335 389.376Z" fill="white"/>
<path d="M285.205 406.145L274.645 409.678L273.558 406.431L284.119 402.897L285.205 406.145ZM281.855 397.142L269.869 401.153L268.762 397.846L284.693 392.514L291.802 413.757L276.295 418.946L275.188 415.638L286.75 411.769L281.855 397.142Z" fill="white"/>
<path d="M237.767 403.319C239.781 403.096 241.556 403.329 243.092 404.017C244.63 404.727 245.871 405.855 246.815 407.404C247.76 408.952 248.365 410.924 248.63 413.32C248.912 415.864 248.694 418.067 247.978 419.928C247.24 421.791 246.105 423.269 244.573 424.362C243.02 425.457 241.173 426.123 239.032 426.36C237.908 426.485 236.824 426.487 235.78 426.366C234.716 426.248 233.796 425.985 233.021 425.577L234.202 422.291C234.862 422.626 235.56 422.827 236.298 422.896C237.016 422.988 237.768 422.991 238.552 422.904C240.651 422.671 242.244 421.84 243.331 420.41C244.417 418.981 244.821 417.004 244.541 414.481C244.496 414.078 244.433 413.602 244.351 413.053C244.271 412.526 244.137 411.993 243.948 411.456L245.376 412.714C245.09 413.626 244.651 414.405 244.057 415.05C243.444 415.719 242.698 416.252 241.819 416.65C240.919 417.05 239.929 417.31 238.847 417.43C237.384 417.592 236.048 417.45 234.84 417.005C233.634 416.58 232.634 415.886 231.84 414.922C231.049 413.98 230.577 412.819 230.424 411.441C230.262 409.978 230.482 408.666 231.083 407.505C231.684 406.343 232.567 405.398 233.731 404.668C234.895 403.938 236.24 403.488 237.767 403.319ZM238.349 406.539C237.501 406.633 236.764 406.864 236.14 407.234C235.518 407.625 235.058 408.127 234.761 408.739C234.443 409.354 234.326 410.043 234.411 410.806C234.54 411.972 235.045 412.85 235.926 413.439C236.807 414.029 237.926 414.248 239.283 414.098C240.173 413.999 240.939 413.743 241.58 413.328C242.202 412.937 242.683 412.433 243.022 411.816C243.341 411.201 243.459 410.523 243.376 409.781C243.301 409.102 243.052 408.497 242.628 407.964C242.204 407.432 241.634 407.033 240.918 406.769C240.18 406.507 239.324 406.431 238.349 406.539Z" fill="white"/>
</svg>
