<svg width="190" height="190" viewBox="0 0 190 190" fill="none" xmlns="http://www.w3.org/2000/svg">
<path d="M160.963 129.037C155.496 134.504 146.631 134.504 141.164 129.037L117.027 104.899C111.559 99.432 111.559 90.5678 117.027 85.1005L141.164 60.9631C146.631 55.4957 155.496 55.4957 160.963 60.9631L185.101 85.1004C190.568 90.5678 190.568 99.432 185.101 104.899L160.963 129.037ZM48.8359 129.037C43.3686 134.504 34.5042 134.504 29.0369 129.037L4.89952 104.899C-0.567819 99.432 -0.567829 90.5678 4.89951 85.1005L29.0369 60.9631C34.5042 55.4957 43.3686 55.4957 48.8359 60.9631L72.9733 85.1004C78.4406 90.5678 78.4406 99.432 72.9733 104.899L48.8359 129.037ZM104.9 185.1C99.432 190.568 90.5679 190.568 85.1005 185.1L60.9631 160.963C55.4958 155.496 55.4958 146.631 60.9631 141.164L85.1005 117.027C90.5679 111.559 99.432 111.559 104.9 117.027L129.037 141.164C134.504 146.631 134.504 155.496 129.037 160.963L104.9 185.1ZM104.9 72.9732C99.432 78.4405 90.5679 78.4406 85.1005 72.9732L60.9631 48.8358C55.4958 43.3685 55.4958 34.5042 60.9631 29.0368L85.1005 4.89946C90.5679 -0.56788 99.432 -0.56789 104.9 4.89945L129.037 29.0368C134.504 34.5042 134.504 43.3685 129.037 48.8358L104.9 72.9732Z" fill="url(#paint0_linear_2_3)"/>
<defs>
<linearGradient id="paint0_linear_2_3" x1="149.166" y1="30.9433" x2="42.2475" y2="139.745" gradientUnits="userSpaceOnUse">
<stop offset="0.0509862" stop-color="#407ED7"/>
<stop offset="1" stop-color="#6FCAFF"/>
</linearGradient>
</defs>
</svg>
